<?xml version="1.0" encoding="UTF-8"?>
<svg xmlns="http://www.w3.org/2000/svg" xmlns:xlink="http://www.w3.org/1999/xlink" width="64pt" height="64pt" viewBox="0 0 64 64" version="1.1">
<g id="surface1">
<path style=" stroke:none;fill-rule:nonzero;fill:#00153D;fill-opacity:1;" d="M 25.238281 4.207031 C 20.558594 4.308594 17.144531 5.738281 15.078125 8.453125 C 12.632813 11.667969 12.152344 16.578125 13.691406 23.09375 C 13.164063 23.769531 12.695313 24.835938 12.816406 26.308594 C 13.195313 29.058594 14.265625 30.214844 15.117188 30.675781 C 15.550781 32.964844 16.777344 35.363281 17.898438 36.507813 C 17.902344 36.789063 17.929688 37.074219 17.9375 37.339844 C 17.960938 38.554688 17.976563 39.601563 17.816406 40.953125 C 17.117188 42.734375 14.527344 43.78125 11.546875 44.960938 C 6.59375 46.925781 0.421875 49.355469 0 57.0625 L -0.078125 58.414063 L 50.871094 58.414063 L 50.792969 57.0625 C 50.367188 49.332031 44.171875 46.886719 39.207031 44.921875 C 36.238281 43.75 33.660156 42.761719 32.855469 40.992188 C 32.757813 39.316406 32.777344 38.054688 32.777344 36.507813 C 33.878906 35.347656 35.03125 32.917969 35.515625 30.714844 C 36.429688 30.28125 37.554688 29.171875 37.816406 26.269531 C 37.9375 24.839844 37.566406 23.773438 37.023438 23.09375 C 38.101563 19.632813 39.027344 13.695313 36.746094 9.921875 C 35.664063 8.128906 34.046875 7.023438 31.863281 6.585938 C 30.640625 5.039063 28.3125 4.207031 25.238281 4.207031 Z M 41.90625 20.316406 L 41.90625 22.855469 L 63.492188 22.855469 L 63.492188 20.316406 Z M 39.363281 30.476563 L 39.363281 33.015625 L 63.492188 33.015625 L 63.492188 30.476563 Z M 41.90625 40.636719 L 41.90625 43.175781 L 63.492188 43.175781 L 63.492188 40.636719 Z "/>
</g>
</svg>
