<?xml version="1.0" encoding="UTF-8"?>
<svg xmlns="http://www.w3.org/2000/svg" xmlns:xlink="http://www.w3.org/1999/xlink" width="64pt" height="64pt" viewBox="0 0 64 64" version="1.1">
<g id="surface1">
<path style=" stroke:none;fill-rule:nonzero;fill:#00153D;fill-opacity:1;" d="M 52.0625 0 L 11.429688 0 C 9.332031 0 7.617188 1.710938 7.617188 3.808594 L 7.617188 63.492188 L 55.871094 63.492188 L 55.871094 3.808594 C 55.871094 1.710938 54.160156 0 52.0625 0 Z M 35.554688 29.207031 L 35.554688 21.585938 L 46.984375 21.585938 L 46.984375 29.207031 Z M 46.984375 34.285156 L 46.984375 41.90625 L 35.554688 41.90625 L 35.554688 34.285156 Z M 35.554688 16.507813 L 35.554688 8.890625 L 46.984375 8.890625 L 46.984375 16.507813 Z M 16.507813 29.207031 L 16.507813 21.585938 L 27.9375 21.585938 L 27.9375 29.207031 Z M 27.9375 34.285156 L 27.9375 41.90625 L 16.507813 41.90625 L 16.507813 34.285156 Z M 16.507813 16.507813 L 16.507813 8.890625 L 27.9375 8.890625 L 27.9375 16.507813 Z M 16.507813 46.984375 L 27.9375 46.984375 L 27.9375 54.601563 L 16.507813 54.601563 Z M 35.554688 46.984375 L 46.984375 46.984375 L 46.984375 60.953125 L 35.554688 60.953125 Z "/>
</g>
</svg>
