<?xml version="1.0" encoding="UTF-8"?>
<svg xmlns="http://www.w3.org/2000/svg" xmlns:xlink="http://www.w3.org/1999/xlink" width="64pt" height="64pt" viewBox="0 0 64 64" version="1.1">
<g id="surface1">
<path style=" stroke:none;fill-rule:nonzero;fill:#0F1096;fill-opacity:1;" d="M 10.160156 2.539063 L 10.160156 7.617188 L 5.078125 7.617188 L 5.078125 60.953125 L 58.414063 60.953125 L 58.414063 17.777344 L 38.09375 17.777344 L 38.09375 7.617188 L 33.015625 7.617188 L 33.015625 2.539063 Z M 12.699219 5.078125 L 30.476563 5.078125 L 30.476563 10.160156 L 35.554688 10.160156 L 35.554688 58.414063 L 24.128906 58.414063 L 24.128906 49.523438 L 19.046875 49.523438 L 19.046875 58.414063 L 7.617188 58.414063 L 7.617188 10.160156 L 12.699219 10.160156 Z M 12.699219 12.699219 L 12.699219 15.238281 L 15.238281 15.238281 L 15.238281 12.699219 Z M 17.777344 12.699219 L 17.777344 15.238281 L 20.316406 15.238281 L 20.316406 12.699219 Z M 22.855469 12.699219 L 22.855469 15.238281 L 25.398438 15.238281 L 25.398438 12.699219 Z M 27.9375 12.699219 L 27.9375 15.238281 L 30.476563 15.238281 L 30.476563 12.699219 Z M 12.699219 19.046875 L 12.699219 24.128906 L 15.238281 24.128906 L 15.238281 19.046875 Z M 17.777344 19.046875 L 17.777344 24.128906 L 20.316406 24.128906 L 20.316406 19.046875 Z M 22.855469 19.046875 L 22.855469 24.128906 L 25.398438 24.128906 L 25.398438 19.046875 Z M 27.9375 19.046875 L 27.9375 24.128906 L 30.476563 24.128906 L 30.476563 19.046875 Z M 38.09375 20.316406 L 55.871094 20.316406 L 55.871094 58.414063 L 38.09375 58.414063 Z M 40.636719 22.855469 L 40.636719 25.398438 L 43.175781 25.398438 L 43.175781 22.855469 Z M 45.714844 22.855469 L 45.714844 25.398438 L 48.253906 25.398438 L 48.253906 22.855469 Z M 50.792969 22.855469 L 50.792969 25.398438 L 53.332031 25.398438 L 53.332031 22.855469 Z M 12.699219 26.667969 L 12.699219 31.746094 L 15.238281 31.746094 L 15.238281 26.667969 Z M 17.777344 26.667969 L 17.777344 31.746094 L 20.316406 31.746094 L 20.316406 26.667969 Z M 22.855469 26.667969 L 22.855469 31.746094 L 25.398438 31.746094 L 25.398438 26.667969 Z M 27.9375 26.667969 L 27.9375 31.746094 L 30.476563 31.746094 L 30.476563 26.667969 Z M 40.636719 27.9375 L 40.636719 30.476563 L 43.175781 30.476563 L 43.175781 27.9375 Z M 45.714844 27.9375 L 45.714844 30.476563 L 48.253906 30.476563 L 48.253906 27.9375 Z M 50.792969 27.9375 L 50.792969 30.476563 L 53.332031 30.476563 L 53.332031 27.9375 Z M 40.636719 33.015625 L 40.636719 35.554688 L 43.175781 35.554688 L 43.175781 33.015625 Z M 45.714844 33.015625 L 45.714844 35.554688 L 48.253906 35.554688 L 48.253906 33.015625 Z M 50.792969 33.015625 L 50.792969 35.554688 L 53.332031 35.554688 L 53.332031 33.015625 Z M 12.699219 34.285156 L 12.699219 39.363281 L 15.238281 39.363281 L 15.238281 34.285156 Z M 17.777344 34.285156 L 17.777344 39.363281 L 20.316406 39.363281 L 20.316406 34.285156 Z M 22.855469 34.285156 L 22.855469 39.363281 L 25.398438 39.363281 L 25.398438 34.285156 Z M 27.9375 34.285156 L 27.9375 39.363281 L 30.476563 39.363281 L 30.476563 34.285156 Z M 40.636719 38.09375 L 40.636719 40.636719 L 43.175781 40.636719 L 43.175781 38.09375 Z M 45.714844 38.09375 L 45.714844 40.636719 L 48.253906 40.636719 L 48.253906 38.09375 Z M 50.792969 38.09375 L 50.792969 40.636719 L 53.332031 40.636719 L 53.332031 38.09375 Z M 12.699219 41.90625 L 12.699219 46.984375 L 15.238281 46.984375 L 15.238281 41.90625 Z M 17.777344 41.90625 L 17.777344 46.984375 L 20.316406 46.984375 L 20.316406 41.90625 Z M 22.855469 41.90625 L 22.855469 46.984375 L 25.398438 46.984375 L 25.398438 41.90625 Z M 27.9375 41.90625 L 27.9375 46.984375 L 30.476563 46.984375 L 30.476563 41.90625 Z M 40.636719 43.175781 L 40.636719 45.714844 L 43.175781 45.714844 L 43.175781 43.175781 Z M 45.714844 43.175781 L 45.714844 45.714844 L 48.253906 45.714844 L 48.253906 43.175781 Z M 50.792969 43.175781 L 50.792969 45.714844 L 53.332031 45.714844 L 53.332031 43.175781 Z M 40.636719 48.253906 L 40.636719 50.792969 L 43.175781 50.792969 L 43.175781 48.253906 Z M 45.714844 48.253906 L 45.714844 50.792969 L 48.253906 50.792969 L 48.253906 48.253906 Z M 50.792969 48.253906 L 50.792969 50.792969 L 53.332031 50.792969 L 53.332031 48.253906 Z M 12.699219 49.523438 L 12.699219 55.871094 L 15.238281 55.871094 L 15.238281 49.523438 Z M 27.9375 49.523438 L 27.9375 55.871094 L 30.476563 55.871094 L 30.476563 49.523438 Z M 40.636719 53.332031 L 40.636719 55.871094 L 43.175781 55.871094 L 43.175781 53.332031 Z M 45.714844 53.332031 L 45.714844 55.871094 L 48.253906 55.871094 L 48.253906 53.332031 Z M 50.792969 53.332031 L 50.792969 55.871094 L 53.332031 55.871094 L 53.332031 53.332031 Z "/>
</g>
</svg>
