<?xml version="1.0" encoding="UTF-8"?>
<svg xmlns="http://www.w3.org/2000/svg" xmlns:xlink="http://www.w3.org/1999/xlink" width="64pt" height="64pt" viewBox="0 0 64 64" version="1.1">
<g id="surface1">
<path style=" stroke:none;fill-rule:nonzero;fill:#0F1096;fill-opacity:1;" d="M 31.628906 5.039063 C 31.585938 5.050781 31.546875 5.066406 31.507813 5.078125 L 13.96875 5.078125 C 13.929688 5.078125 13.890625 5.078125 13.847656 5.078125 C 13.808594 5.078125 13.769531 5.078125 13.730469 5.078125 C 13.527344 5.125 13.332031 5.21875 13.175781 5.355469 L 5.675781 11.628906 L 5.554688 11.707031 C 5.5 11.742188 5.445313 11.78125 5.398438 11.824219 C 5.382813 11.839844 5.371094 11.851563 5.355469 11.863281 C 5.355469 11.878906 5.355469 11.890625 5.355469 11.90625 C 5.34375 11.90625 5.332031 11.90625 5.316406 11.90625 C 5.316406 11.929688 5.316406 11.960938 5.316406 11.984375 C 5.289063 12.023438 5.261719 12.0625 5.238281 12.101563 C 5.1875 12.175781 5.148438 12.257813 5.117188 12.339844 C 5.097656 12.421875 5.085938 12.5 5.078125 12.578125 C 5.070313 12.660156 5.070313 12.738281 5.078125 12.816406 L 5.078125 57.144531 C 5.078125 57.84375 5.648438 58.414063 6.347656 58.414063 L 57.144531 58.414063 C 57.84375 58.414063 58.414063 57.84375 58.414063 57.144531 L 58.414063 12.898438 C 58.417969 12.832031 58.417969 12.761719 58.414063 12.699219 C 58.414063 12.671875 58.414063 12.644531 58.414063 12.617188 C 58.414063 12.605469 58.414063 12.59375 58.414063 12.578125 C 58.414063 12.554688 58.414063 12.523438 58.414063 12.5 C 58.398438 12.484375 58.386719 12.476563 58.371094 12.460938 C 58.371094 12.433594 58.371094 12.40625 58.371094 12.382813 C 58.371094 12.367188 58.371094 12.355469 58.371094 12.339844 C 58.363281 12.316406 58.347656 12.285156 58.332031 12.261719 C 58.320313 12.246094 58.308594 12.238281 58.292969 12.222656 C 58.292969 12.199219 58.292969 12.167969 58.292969 12.144531 C 58.277344 12.128906 58.269531 12.117188 58.253906 12.101563 C 58.242188 12.078125 58.230469 12.046875 58.214844 12.023438 C 58.199219 12.007813 58.191406 12 58.175781 11.984375 C 58.160156 11.96875 58.148438 11.960938 58.136719 11.945313 C 58.125 11.917969 58.109375 11.890625 58.09375 11.863281 C 58.082031 11.851563 58.070313 11.839844 58.054688 11.824219 C 58.039063 11.808594 58.03125 11.800781 58.015625 11.785156 C 58 11.769531 57.992188 11.761719 57.976563 11.746094 C 57.960938 11.730469 57.953125 11.722656 57.9375 11.707031 L 57.816406 11.628906 C 57.792969 11.597656 57.769531 11.574219 57.738281 11.546875 L 50.316406 5.355469 C 50.09375 5.179688 49.8125 5.078125 49.523438 5.078125 L 32.023438 5.078125 C 31.894531 5.042969 31.761719 5.03125 31.628906 5.039063 Z M 14.445313 7.617188 L 30.476563 7.617188 L 30.476563 11.429688 L 9.882813 11.429688 Z M 33.015625 7.617188 L 49.046875 7.617188 L 53.609375 11.429688 L 33.015625 11.429688 Z M 7.617188 13.96875 L 55.871094 13.96875 L 55.871094 55.871094 L 7.617188 55.871094 Z M 27.300781 19.046875 C 25.546875 19.046875 24.128906 20.464844 24.128906 22.222656 C 24.128906 23.976563 25.546875 25.398438 27.300781 25.398438 L 36.191406 25.398438 C 37.945313 25.398438 39.363281 23.976563 39.363281 22.222656 C 39.363281 20.464844 37.945313 19.046875 36.191406 19.046875 Z M 27.300781 21.585938 L 36.191406 21.585938 C 36.464844 21.585938 36.824219 21.949219 36.824219 22.222656 C 36.824219 22.496094 36.464844 22.855469 36.191406 22.855469 L 27.300781 22.855469 C 27.027344 22.855469 26.667969 22.496094 26.667969 22.222656 C 26.667969 21.949219 27.027344 21.585938 27.300781 21.585938 Z M 39.363281 39.363281 L 35.554688 43.175781 L 38.09375 43.175781 L 38.09375 48.253906 L 40.636719 48.253906 L 40.636719 43.175781 L 43.175781 43.175781 Z M 48.253906 39.363281 L 44.445313 43.175781 L 46.984375 43.175781 L 46.984375 48.253906 L 49.523438 48.253906 L 49.523438 43.175781 L 52.0625 43.175781 Z M 35.554688 49.523438 L 35.554688 52.0625 L 52.0625 52.0625 L 52.0625 49.523438 Z "/>
</g>
</svg>
