<?xml version="1.0" encoding="UTF-8"?>
<svg xmlns="http://www.w3.org/2000/svg" xmlns:xlink="http://www.w3.org/1999/xlink" width="64pt" height="64pt" viewBox="0 0 64 64" version="1.1">
<g id="surface1">
<path style=" stroke:none;fill-rule:nonzero;fill:#00153D;fill-opacity:1;" d="M 5.078125 7.617188 L 5.078125 13.96875 L 4.921875 15.039063 C 4.875 15.300781 3.808594 21.519531 3.808594 24.761719 C 3.808594 26.816406 4.289063 28.453125 5.160156 29.644531 C 5.132813 29.628906 5.105469 29.617188 5.078125 29.601563 L 5.078125 60.953125 L 58.414063 60.953125 L 58.414063 29.601563 C 58.386719 29.617188 58.363281 29.628906 58.332031 29.644531 C 59.203125 28.453125 59.683594 26.816406 59.683594 24.761719 C 59.683594 21.519531 58.617188 15.300781 58.570313 15.039063 L 58.371094 13.96875 L 58.414063 13.96875 L 58.414063 7.617188 Z M 7.222656 16.507813 L 12.699219 16.507813 L 12.699219 27.816406 C 11.863281 28.679688 10.695313 29.207031 9.523438 29.207031 C 7.414063 29.207031 6.347656 27.707031 6.347656 24.761719 C 6.347656 22.488281 6.929688 18.425781 7.222656 16.507813 Z M 15.238281 16.507813 L 21.585938 16.507813 L 21.585938 27.816406 C 20.753906 28.679688 19.582031 29.207031 18.414063 29.207031 C 17.242188 29.207031 16.070313 28.675781 15.238281 27.816406 Z M 24.128906 16.507813 L 30.476563 16.507813 L 30.476563 27.816406 C 29.644531 28.679688 28.472656 29.207031 27.300781 29.207031 C 26.132813 29.207031 24.960938 28.675781 24.128906 27.816406 Z M 33.015625 16.507813 L 39.363281 16.507813 L 39.363281 27.816406 C 38.53125 28.679688 37.359375 29.207031 36.191406 29.207031 C 35.019531 29.207031 33.847656 28.675781 33.015625 27.816406 Z M 41.90625 16.507813 L 48.253906 16.507813 L 48.253906 27.816406 C 47.421875 28.679688 46.25 29.207031 45.078125 29.207031 C 43.910156 29.207031 42.738281 28.675781 41.90625 27.816406 Z M 50.792969 16.507813 L 56.230469 16.507813 C 56.53125 18.425781 57.144531 22.488281 57.144531 24.761719 C 57.144531 27.707031 56.078125 29.207031 53.96875 29.207031 C 52.796875 29.207031 51.628906 28.675781 50.792969 27.816406 Z M 12.699219 38.09375 L 33.015625 38.09375 L 33.015625 53.332031 L 12.699219 53.332031 Z M 39.363281 38.09375 L 50.792969 38.09375 L 50.792969 58.414063 L 39.363281 58.414063 Z "/>
</g>
</svg>
