<?xml version="1.0" encoding="UTF-8"?>
<svg xmlns="http://www.w3.org/2000/svg" xmlns:xlink="http://www.w3.org/1999/xlink" width="64pt" height="64pt" viewBox="0 0 64 64" version="1.1">
<g id="surface1">
<path style=" stroke:none;fill-rule:nonzero;fill:#00153D;fill-opacity:1;" d="M 22.855469 8.890625 C 10.253906 8.890625 0 19.140625 0 31.746094 C 0 44.351563 10.253906 54.601563 22.855469 54.601563 C 35.460938 54.601563 45.714844 44.351563 45.714844 31.746094 C 45.714844 19.140625 35.460938 8.890625 22.855469 8.890625 Z M 34.085938 9.007813 C 42.457031 13.164063 48.253906 21.785156 48.253906 31.746094 C 48.253906 41.710938 42.457031 50.328125 34.085938 54.484375 C 45.585938 53.304688 54.601563 43.550781 54.601563 31.746094 C 54.601563 19.941406 45.585938 10.195313 34.085938 9.007813 Z M 42.976563 9.007813 C 51.34375 13.164063 57.101563 21.785156 57.101563 31.746094 C 57.101563 41.710938 51.34375 50.328125 42.976563 54.484375 C 54.472656 53.296875 63.453125 43.550781 63.453125 31.746094 C 63.453125 19.941406 54.472656 10.195313 42.976563 9.007813 Z M 22.222656 20.953125 L 24.128906 20.953125 L 24.128906 42.539063 L 21.585938 42.539063 L 21.585938 27.0625 L 15.992188 27.0625 L 15.992188 25 C 16.757813 25 17.410156 25.011719 18.175781 24.882813 C 18.808594 24.753906 19.445313 24.5 20.078125 24.246094 C 20.585938 23.992188 21.085938 23.480469 21.46875 22.976563 C 21.851563 22.46875 22.09375 21.839844 22.222656 20.953125 Z "/>
</g>
</svg>
