<?xml version="1.0" encoding="UTF-8"?>
<svg xmlns="http://www.w3.org/2000/svg" xmlns:xlink="http://www.w3.org/1999/xlink" width="64pt" height="64pt" viewBox="0 0 64 64" version="1.1">
<g id="surface1">
<path style=" stroke:none;fill-rule:nonzero;fill:#0F1096;fill-opacity:1;" d="M 44.445313 0 C 39.414063 0 34.835938 0.722656 31.429688 1.945313 C 29.722656 2.554688 28.332031 3.257813 27.261719 4.167969 C 26.191406 5.074219 25.398438 6.261719 25.398438 7.617188 C 25.398438 7.871094 25.425781 8.136719 25.476563 8.371094 C 25.417969 8.535156 25.386719 8.714844 25.398438 8.890625 L 25.398438 16.507813 C 25.398438 16.761719 25.425781 17.023438 25.476563 17.261719 C 25.417969 17.425781 25.386719 17.605469 25.398438 17.777344 L 25.398438 21.984375 C 23.40625 21.722656 21.28125 21.585938 19.046875 21.585938 C 14.019531 21.585938 9.441406 22.3125 6.03125 23.53125 C 4.324219 24.140625 2.9375 24.847656 1.863281 25.753906 C 0.792969 26.660156 0 27.847656 0 29.207031 C 0 29.460938 0.03125 29.722656 0.078125 29.960938 C 0.0195313 30.125 -0.0117188 30.300781 0 30.476563 L 0 38.09375 C 0 38.347656 0.03125 38.609375 0.078125 38.847656 C 0.0195313 39.011719 -0.0117188 39.191406 0 39.363281 L 0 46.984375 C 0 47.238281 0.03125 47.5 0.078125 47.738281 C 0.0195313 47.902344 -0.0117188 48.082031 0 48.253906 L 0 55.871094 C 0 57.230469 0.792969 58.417969 1.863281 59.324219 C 2.9375 60.234375 4.324219 60.9375 6.03125 61.546875 C 9.441406 62.761719 14.011719 63.492188 19.046875 63.492188 C 24.082031 63.492188 28.65625 62.761719 32.0625 61.546875 C 33.769531 60.9375 35.160156 60.234375 36.230469 59.324219 C 37.300781 58.417969 38.09375 57.230469 38.09375 55.871094 L 38.09375 50.398438 C 40.085938 50.660156 42.207031 50.792969 44.445313 50.792969 C 49.480469 50.792969 54.050781 50.066406 57.460938 48.847656 C 59.167969 48.238281 60.554688 47.535156 61.628906 46.628906 C 62.699219 45.71875 63.492188 44.535156 63.492188 43.175781 L 63.492188 35.554688 C 63.503906 35.382813 63.472656 35.203125 63.414063 35.039063 C 63.460938 34.800781 63.492188 34.539063 63.492188 34.285156 L 63.492188 26.667969 C 63.503906 26.492188 63.472656 26.316406 63.414063 26.152344 C 63.460938 25.914063 63.492188 25.648438 63.492188 25.398438 L 63.492188 17.777344 C 63.503906 17.605469 63.472656 17.425781 63.414063 17.261719 C 63.460938 17.023438 63.492188 16.761719 63.492188 16.507813 L 63.492188 8.890625 C 63.488281 8.710938 63.449219 8.535156 63.371094 8.371094 C 63.425781 8.128906 63.492188 7.878906 63.492188 7.617188 C 63.492188 6.261719 62.699219 5.074219 61.628906 4.167969 C 60.554688 3.257813 59.167969 2.554688 57.460938 1.945313 C 54.050781 0.722656 49.472656 0 44.445313 0 Z M 44.445313 2.539063 C 49.230469 2.539063 53.5625 3.242188 56.585938 4.324219 C 58.101563 4.867188 59.277344 5.5 60 6.109375 C 60.722656 6.722656 60.953125 7.222656 60.953125 7.617188 C 60.953125 8.015625 60.722656 8.515625 60 9.128906 C 59.277344 9.738281 58.101563 10.371094 56.585938 10.914063 C 53.5625 11.992188 49.230469 12.699219 44.445313 12.699219 C 39.65625 12.699219 35.328125 11.992188 32.300781 10.914063 C 30.789063 10.371094 29.613281 9.738281 28.890625 9.128906 C 28.164063 8.515625 27.9375 8.015625 27.9375 7.617188 C 27.9375 7.222656 28.164063 6.722656 28.890625 6.109375 C 29.613281 5.5 30.789063 4.867188 32.300781 4.324219 C 35.328125 3.242188 39.65625 2.539063 44.445313 2.539063 Z M 27.9375 11.546875 C 28.902344 12.222656 30.050781 12.800781 31.429688 13.292969 C 34.835938 14.515625 39.414063 15.238281 44.445313 15.238281 C 49.472656 15.238281 54.050781 14.515625 57.460938 13.292969 C 58.839844 12.800781 59.984375 12.222656 60.953125 11.546875 L 60.953125 16.507813 C 60.953125 16.90625 60.722656 17.40625 60 18.015625 C 59.277344 18.625 58.101563 19.261719 56.585938 19.800781 C 53.5625 20.882813 49.230469 21.585938 44.445313 21.585938 C 39.65625 21.585938 35.328125 20.882813 32.300781 19.800781 C 30.789063 19.261719 29.613281 18.625 28.890625 18.015625 C 28.164063 17.40625 27.9375 16.90625 27.9375 16.507813 Z M 27.9375 20.4375 C 28.902344 21.109375 30.050781 21.691406 31.429688 22.183594 C 34.835938 23.402344 39.410156 24.128906 44.445313 24.128906 C 49.480469 24.128906 54.050781 23.402344 57.460938 22.183594 C 58.839844 21.691406 59.984375 21.109375 60.953125 20.4375 L 60.953125 25.398438 C 60.953125 25.792969 60.722656 26.292969 60 26.90625 C 59.277344 27.515625 58.101563 28.148438 56.585938 28.691406 C 53.5625 29.773438 49.230469 30.476563 44.445313 30.476563 C 42.15625 30.476563 39.964844 30.324219 37.976563 30.039063 C 37.976563 30.015625 37.976563 29.984375 37.976563 29.960938 C 38.03125 29.71875 38.09375 29.464844 38.09375 29.207031 C 38.09375 27.847656 37.300781 26.660156 36.230469 25.753906 C 35.160156 24.847656 33.769531 24.140625 32.0625 23.53125 C 30.828125 23.089844 29.441406 22.722656 27.9375 22.421875 Z M 19.046875 24.128906 C 23.835938 24.128906 28.164063 24.832031 31.191406 25.914063 C 32.703125 26.453125 33.878906 27.089844 34.601563 27.699219 C 35.328125 28.308594 35.554688 28.808594 35.554688 29.207031 C 35.554688 29.601563 35.328125 30.105469 34.601563 30.714844 C 33.878906 31.324219 32.703125 31.960938 31.191406 32.5 C 28.164063 33.582031 23.835938 34.285156 19.046875 34.285156 C 14.261719 34.285156 9.929688 33.582031 6.90625 32.5 C 5.390625 31.960938 4.214844 31.324219 3.492188 30.714844 C 2.769531 30.105469 2.539063 29.601563 2.539063 29.207031 C 2.539063 28.808594 2.769531 28.308594 3.492188 27.699219 C 4.214844 27.089844 5.390625 26.453125 6.90625 25.914063 C 9.929688 24.832031 14.261719 24.128906 19.046875 24.128906 Z M 60.953125 29.324219 L 60.953125 34.285156 C 60.953125 34.683594 60.722656 35.183594 60 35.792969 C 59.277344 36.402344 58.101563 37.039063 56.585938 37.578125 C 53.5625 38.660156 49.230469 39.363281 44.445313 39.363281 C 42.164063 39.363281 39.996094 39.175781 38.015625 38.890625 C 38 38.890625 37.992188 38.890625 37.976563 38.890625 C 37.980469 38.875 37.972656 38.863281 37.976563 38.847656 C 38.03125 38.605469 38.09375 38.351563 38.09375 38.09375 L 38.09375 32.617188 C 40.074219 32.878906 42.21875 33.015625 44.445313 33.015625 C 49.480469 33.015625 54.050781 32.292969 57.460938 31.070313 C 58.839844 30.582031 59.984375 30 60.953125 29.324219 Z M 2.539063 33.136719 C 3.507813 33.808594 4.652344 34.390625 6.03125 34.882813 C 9.441406 36.101563 14.019531 36.824219 19.046875 36.824219 C 24.078125 36.824219 28.65625 36.101563 32.0625 34.882813 C 33.441406 34.390625 34.589844 33.808594 35.554688 33.136719 L 35.554688 38.09375 C 35.554688 38.492188 35.328125 38.992188 34.601563 39.601563 C 33.878906 40.214844 32.703125 40.847656 31.191406 41.390625 C 28.164063 42.46875 23.835938 43.175781 19.046875 43.175781 C 14.261719 43.175781 9.929688 42.46875 6.90625 41.390625 C 5.390625 40.847656 4.214844 40.214844 3.492188 39.601563 C 2.769531 38.992188 2.539063 38.492188 2.539063 38.09375 Z M 60.953125 38.214844 L 60.953125 43.175781 C 60.953125 43.570313 60.722656 44.074219 60 44.683594 C 59.277344 45.292969 58.101563 45.925781 56.585938 46.46875 C 53.5625 47.550781 49.230469 48.253906 44.445313 48.253906 C 42.144531 48.253906 39.96875 48.066406 37.976563 47.777344 C 37.976563 47.761719 37.976563 47.753906 37.976563 47.738281 C 38.03125 47.496094 38.09375 47.242188 38.09375 46.984375 L 38.09375 41.507813 C 40.078125 41.769531 42.222656 41.90625 44.445313 41.90625 C 49.480469 41.90625 54.050781 41.175781 57.460938 39.960938 C 58.839844 39.46875 59.984375 38.890625 60.953125 38.214844 Z M 2.539063 42.023438 C 3.507813 42.699219 4.652344 43.277344 6.03125 43.769531 C 9.441406 44.984375 14.011719 45.714844 19.046875 45.714844 C 24.082031 45.714844 28.65625 44.984375 32.0625 43.769531 C 33.441406 43.277344 34.589844 42.699219 35.554688 42.023438 L 35.554688 46.984375 C 35.554688 47.382813 35.328125 47.882813 34.601563 48.492188 C 33.878906 49.101563 32.703125 49.738281 31.191406 50.277344 C 28.164063 51.359375 23.835938 52.0625 19.046875 52.0625 C 14.261719 52.0625 9.929688 51.359375 6.90625 50.277344 C 5.390625 49.738281 4.214844 49.101563 3.492188 48.492188 C 2.769531 47.882813 2.539063 47.382813 2.539063 46.984375 Z M 2.539063 50.914063 C 3.507813 51.585938 4.652344 52.167969 6.03125 52.660156 C 9.441406 53.875 14.011719 54.601563 19.046875 54.601563 C 24.082031 54.601563 28.65625 53.875 32.0625 52.660156 C 33.441406 52.167969 34.589844 51.585938 35.554688 50.914063 L 35.554688 55.871094 C 35.554688 56.269531 35.328125 56.769531 34.601563 57.382813 C 33.878906 57.992188 32.703125 58.625 31.191406 59.167969 C 28.164063 60.246094 23.835938 60.953125 19.046875 60.953125 C 14.261719 60.953125 9.929688 60.246094 6.90625 59.167969 C 5.390625 58.625 4.214844 57.992188 3.492188 57.382813 C 2.769531 56.769531 2.539063 56.269531 2.539063 55.871094 Z "/>
</g>
</svg>
