<?xml version="1.0" encoding="UTF-8"?>
<svg xmlns="http://www.w3.org/2000/svg" xmlns:xlink="http://www.w3.org/1999/xlink" width="64pt" height="64pt" viewBox="0 0 64 64" version="1.1">
<g id="surface1">
<path style=" stroke:none;fill-rule:nonzero;fill:#00153D;fill-opacity:1;" d="M 36.824219 2.460938 C 36.601563 2.460938 36.378906 2.53125 36.191406 2.660156 L 13.332031 15.117188 C 12.953125 15.371094 12.699219 15.765625 12.699219 16.269531 L 12.699219 17.777344 C 12.699219 18.542969 13.203125 19.046875 13.96875 19.046875 L 15.871094 19.046875 C 16.125 19.046875 16.378906 19.058594 16.507813 18.929688 L 36.824219 7.617188 L 57.144531 18.929688 C 57.394531 19.058594 57.523438 19.046875 57.777344 19.046875 L 59.683594 19.046875 C 60.445313 19.046875 60.953125 18.542969 60.953125 17.777344 L 60.953125 16.269531 C 60.953125 15.765625 60.699219 15.371094 60.316406 15.117188 L 37.460938 2.660156 C 37.273438 2.53125 37.046875 2.460938 36.824219 2.460938 Z M 36.824219 10.554688 L 17.777344 21.070313 C 17.394531 21.324219 17.015625 21.46875 16.507813 21.46875 L 16.507813 26.429688 L 22.339844 23.253906 C 22.847656 23 23.492188 22.855469 24.128906 22.855469 C 24.761719 22.855469 25.40625 22.992188 25.914063 23.371094 L 46.230469 34.523438 C 47.5 35.160156 48.253906 36.457031 48.253906 37.855469 L 48.253906 39.363281 C 48.253906 41.523438 46.601563 43.175781 44.445313 43.175781 L 44.445313 55.871094 L 55.871094 55.871094 C 56.636719 55.871094 57.144531 55.367188 57.144531 54.601563 L 57.144531 21.46875 C 56.761719 21.46875 56.253906 21.324219 55.871094 21.070313 Z M 24.128906 25.316406 C 23.902344 25.316406 23.679688 25.386719 23.492188 25.515625 L 3.175781 36.707031 C 2.792969 36.960938 2.539063 37.351563 2.539063 37.855469 L 2.539063 39.363281 C 2.539063 40.128906 3.046875 40.636719 3.808594 40.636719 L 5.714844 40.636719 C 5.96875 40.636719 6.21875 40.644531 6.347656 40.515625 L 24.128906 30.476563 L 41.90625 40.515625 C 42.15625 40.644531 42.285156 40.636719 42.539063 40.636719 L 44.445313 40.636719 C 45.207031 40.636719 45.714844 40.128906 45.714844 39.363281 L 45.714844 37.855469 C 45.714844 37.351563 45.460938 36.960938 45.078125 36.707031 L 24.761719 25.515625 C 24.574219 25.386719 24.351563 25.316406 24.128906 25.316406 Z M 24.128906 33.414063 L 7.617188 42.660156 C 7.238281 42.910156 6.855469 43.054688 6.347656 43.054688 L 6.347656 59.683594 C 6.347656 60.445313 6.855469 60.953125 7.617188 60.953125 L 40.636719 60.953125 C 41.398438 60.953125 41.90625 60.445313 41.90625 59.683594 L 41.90625 43.054688 C 41.523438 42.925781 41.015625 42.910156 40.636719 42.660156 Z "/>
</g>
</svg>
