<?xml version="1.0" encoding="UTF-8"?>
<svg xmlns="http://www.w3.org/2000/svg" xmlns:xlink="http://www.w3.org/1999/xlink" width="64pt" height="64pt" viewBox="0 0 64 64" version="1.1">
<g id="surface1">
<path style=" stroke:none;fill-rule:nonzero;fill:#0F1096;fill-opacity:1;" d="M 36.707031 2.539063 C 36.539063 2.558594 36.378906 2.613281 36.230469 2.699219 L 13.371094 15.117188 C 12.960938 15.335938 12.703125 15.765625 12.699219 16.230469 L 12.699219 20.316406 C 12.699219 21.015625 13.269531 21.585938 13.96875 21.585938 L 16.507813 21.585938 L 16.507813 26.945313 L 19.046875 25.554688 L 19.046875 20.753906 L 36.824219 10.953125 L 54.601563 20.753906 L 54.601563 53.332031 L 44.445313 53.332031 L 44.445313 55.871094 L 55.871094 55.871094 C 56.574219 55.871094 57.144531 55.300781 57.144531 54.601563 L 57.144531 21.585938 L 59.683594 21.585938 C 60.382813 21.585938 60.953125 21.015625 60.953125 20.316406 L 60.953125 16.230469 C 60.949219 15.765625 60.691406 15.335938 60.277344 15.117188 L 37.421875 2.699219 C 37.203125 2.574219 36.953125 2.519531 36.707031 2.539063 Z M 36.824219 5.238281 L 58.414063 16.984375 L 58.414063 19.046875 L 56.785156 19.046875 L 37.421875 8.414063 C 37.046875 8.214844 36.601563 8.214844 36.230469 8.414063 L 16.863281 19.046875 L 15.238281 19.046875 L 15.238281 16.984375 Z M 24.007813 25.398438 C 23.839844 25.417969 23.679688 25.472656 23.53125 25.554688 L 3.214844 36.707031 C 2.800781 36.925781 2.542969 37.351563 2.539063 37.816406 L 2.539063 41.90625 C 2.539063 42.605469 3.109375 43.175781 3.808594 43.175781 L 6.347656 43.175781 L 6.347656 59.683594 C 6.347656 60.382813 6.917969 60.953125 7.617188 60.953125 L 40.636719 60.953125 C 41.335938 60.953125 41.90625 60.382813 41.90625 59.683594 L 41.90625 43.175781 L 44.445313 43.175781 C 45.144531 43.175781 45.714844 42.605469 45.714844 41.90625 L 45.714844 37.816406 C 45.710938 37.351563 45.453125 36.925781 45.039063 36.707031 L 24.722656 25.554688 C 24.503906 25.429688 24.257813 25.378906 24.007813 25.398438 Z M 24.128906 28.09375 L 43.175781 38.570313 L 43.175781 40.636719 L 41.546875 40.636719 L 24.761719 31.269531 C 24.371094 31.042969 23.882813 31.042969 23.492188 31.269531 L 6.707031 40.636719 L 5.078125 40.636719 L 5.078125 38.570313 Z M 24.128906 33.847656 L 39.363281 42.339844 L 39.363281 58.414063 L 8.890625 58.414063 L 8.890625 42.339844 Z "/>
</g>
</svg>
