<?xml version="1.0" encoding="UTF-8"?>
<svg xmlns="http://www.w3.org/2000/svg" xmlns:xlink="http://www.w3.org/1999/xlink" width="512pt" height="512pt" viewBox="0 0 512 512" version="1.1">
<g id="surface1">
<path style=" stroke:none;fill-rule:nonzero;fill:#0F1096;fill-opacity:1;" d="M 355.554688 20.316406 C 310.871094 20.316406 274.285156 58.929688 274.285156 105.675781 C 274.285156 152.382813 355.554688 264.128906 355.554688 264.128906 C 355.554688 264.128906 436.824219 152.382813 436.824219 105.675781 C 436.824219 58.929688 400.238281 20.316406 355.554688 20.316406 Z M 243.808594 61.984375 C 215.355469 69.085938 190.992188 107.699219 176.785156 162.539063 L 243.808594 162.539063 Z M 201.152344 68.054688 C 147.300781 82.261719 101.585938 115.792969 72.144531 162.539063 L 155.4375 162.539063 C 165.59375 121.90625 181.863281 89.40625 201.152344 68.054688 Z M 355.554688 71.109375 C 372.816406 71.109375 386.03125 84.324219 386.03125 101.585938 C 386.03125 118.847656 372.816406 132.0625 355.554688 132.0625 C 338.292969 132.0625 325.078125 118.847656 325.078125 101.585938 C 325.078125 84.324219 338.292969 71.109375 355.554688 71.109375 Z M 61.984375 182.855469 C 49.761719 207.222656 42.660156 234.683594 41.667969 264.128906 L 143.214844 264.128906 C 143.214844 235.675781 146.308594 208.253906 150.355469 182.855469 Z M 171.707031 182.855469 C 166.628906 208.253906 163.570313 235.675781 162.539063 264.128906 L 243.808594 264.128906 L 243.808594 182.855469 Z M 264.128906 182.855469 L 264.128906 264.128906 L 330.160156 264.128906 C 317.976563 245.832031 296.628906 215.355469 279.363281 182.855469 Z M 430.753906 182.855469 C 413.453125 215.355469 393.136719 245.832031 379.960938 264.128906 L 466.308594 264.128906 C 465.277344 234.683594 458.175781 207.222656 445.992188 182.855469 Z M 40.636719 284.445313 C 41.667969 313.890625 48.769531 341.347656 60.953125 365.714844 L 150.355469 365.714844 C 146.308594 340.316406 143.253906 312.898438 142.222656 284.445313 Z M 162.539063 284.445313 C 163.570313 312.898438 166.628906 340.316406 171.707031 365.714844 L 243.808594 365.714844 L 243.808594 284.445313 Z M 264.128906 284.445313 L 264.128906 365.714844 L 336.230469 365.714844 C 341.308594 340.316406 344.363281 312.898438 345.398438 284.445313 Z M 365.714844 284.445313 C 364.683594 312.898438 362.660156 340.316406 357.578125 365.714844 L 446.984375 365.714844 C 459.167969 341.347656 466.269531 313.890625 467.300781 284.445313 Z M 72.144531 386.03125 C 100.554688 432.777344 146.269531 466.308594 200.117188 480.515625 C 180.832031 459.167969 164.5625 426.667969 154.40625 386.03125 Z M 176.785156 386.03125 C 190.992188 439.882813 215.355469 478.492188 243.808594 486.628906 L 243.808594 386.03125 Z M 264.128906 386.03125 L 264.128906 486.628906 C 292.578125 479.484375 316.945313 440.871094 331.152344 386.03125 Z M 351.46875 386.03125 C 342.339844 426.667969 326.070313 459.167969 306.785156 480.515625 C 360.636719 466.308594 406.347656 431.746094 434.800781 386.03125 Z "/>
</g>
</svg>
