<?xml version="1.0" encoding="UTF-8"?>
<svg xmlns="http://www.w3.org/2000/svg" xmlns:xlink="http://www.w3.org/1999/xlink" width="512pt" height="512pt" viewBox="0 0 512 512" version="1.1">
<g id="surface1">
<path style=" stroke:none;fill-rule:nonzero;fill:#0F1096;fill-opacity:1;" d="M 30.476563 40.636719 C 13.691406 40.636719 0 54.324219 0 71.109375 L 0 336.191406 C 14.882813 256.984375 31.546875 168.136719 32.382813 163.808594 C 37.539063 137.5 57.382813 121.90625 85.714844 121.90625 L 477.460938 121.90625 L 477.460938 111.746094 C 477.460938 94.960938 463.769531 81.269531 446.984375 81.269531 L 183.175781 81.269531 C 180.355469 80.238281 174.5625 71.03125 171.429688 66.03125 C 163.609375 53.570313 155.59375 40.636719 142.222656 40.636719 Z M 85.714844 142.222656 C 72.699219 142.222656 56.507813 146.785156 52.382813 167.9375 C 51.070313 174.523438 11.507813 385.117188 0 446.347656 L 0 446.984375 C 0 463.769531 13.691406 477.460938 30.476563 477.460938 L 426.667969 477.460938 C 443.136719 477.460938 456.585938 464.285156 457.144531 447.9375 L 507.617188 174.601563 L 507.9375 172.699219 C 507.9375 155.914063 494.246094 142.222656 477.460938 142.222656 Z "/>
</g>
</svg>
