<?xml version="1.0" encoding="UTF-8"?>
<svg xmlns="http://www.w3.org/2000/svg" xmlns:xlink="http://www.w3.org/1999/xlink" width="512pt" height="512pt" viewBox="0 0 512 512" version="1.1">
<g id="surface1">
<path style=" stroke:none;fill-rule:nonzero;fill:#0F1096;fill-opacity:1;" d="M 253.96875 60.953125 C 237.261719 60.953125 223.492188 74.722656 223.492188 91.429688 L 223.492188 105.277344 C 174.445313 117.339844 142.222656 158.609375 142.222656 213.96875 L 142.222656 293.214844 C 142.222656 315.277344 129.207031 340.277344 121.707031 352.777344 L 103.292969 380.398438 C 101.230469 383.492188 100.992188 387.539063 102.777344 390.832031 C 104.5625 394.128906 108.015625 396.191406 111.746094 396.191406 L 396.191406 396.191406 C 399.921875 396.191406 403.371094 394.128906 405.160156 390.832031 C 406.945313 387.539063 406.707031 383.53125 404.644531 380.398438 L 386.507813 353.175781 C 372.5 329.882813 365.714844 310.714844 365.714844 294.601563 L 365.714844 215.355469 C 365.714844 159.324219 333.492188 117.539063 284.445313 105.355469 L 284.445313 91.429688 C 284.445313 74.722656 270.675781 60.953125 253.96875 60.953125 Z M 253.96875 81.269531 C 259.601563 81.269531 264.128906 85.792969 264.128906 91.429688 L 264.128906 102.0625 C 260.792969 101.785156 257.421875 101.585938 253.96875 101.585938 C 250.515625 101.585938 247.144531 101.785156 243.808594 102.0625 L 243.808594 91.429688 C 243.808594 85.792969 248.332031 81.269531 253.96875 81.269531 Z M 35.355469 96.269531 C 12.699219 133.09375 0 176.945313 0 223.492188 C 0 270.039063 12.699219 313.890625 35.355469 350.714844 L 52.699219 340.078125 C 32.023438 306.46875 20.316406 266.347656 20.316406 223.492188 C 20.316406 180.636719 32.023438 140.515625 52.699219 106.90625 Z M 472.578125 96.269531 L 455.238281 106.90625 C 475.914063 140.515625 487.617188 180.636719 487.617188 223.492188 C 487.617188 266.347656 475.914063 306.46875 455.238281 340.078125 L 472.578125 350.714844 C 495.238281 313.890625 507.9375 270.039063 507.9375 223.492188 C 507.9375 176.945313 495.238281 133.09375 472.578125 96.269531 Z M 79.40625 123.332031 C 60.914063 153.214844 50.792969 186.46875 50.792969 223.492188 C 50.792969 260.792969 62.261719 295.078125 79.324219 323.53125 L 96.746094 313.054688 C 81.347656 287.339844 71.109375 256.628906 71.109375 223.492188 C 71.109375 190.078125 79.960938 161.03125 96.667969 134.007813 Z M 428.53125 123.332031 L 411.269531 134.007813 C 427.976563 161.03125 436.824219 190.078125 436.824219 223.492188 C 436.824219 256.628906 426.585938 287.339844 411.152344 313.054688 L 428.609375 323.53125 C 445.675781 295.078125 457.144531 260.792969 457.144531 223.492188 C 457.144531 186.46875 447.023438 153.214844 428.53125 123.332031 Z M 207.460938 416.507813 C 215.355469 434.40625 233.175781 446.984375 253.96875 446.984375 C 274.761719 446.984375 292.578125 434.40625 300.476563 416.507813 Z "/>
</g>
</svg>
