<?xml version="1.0" encoding="UTF-8"?>
<svg xmlns="http://www.w3.org/2000/svg" xmlns:xlink="http://www.w3.org/1999/xlink" width="512pt" height="512pt" viewBox="0 0 512 512" version="1.1">
<g id="surface1">
<path style=" stroke:none;fill-rule:nonzero;fill:#0F1096;fill-opacity:1;" d="M 253.96875 10.675781 C 251.746094 10.675781 249.5625 11.390625 247.660156 12.777344 L 14.046875 195.160156 C 9.644531 198.609375 8.847656 205 12.300781 209.484375 C 15.753906 213.847656 22.144531 214.644531 26.585938 211.191406 L 40.636719 200.238281 L 40.636719 467.300781 C 40.636719 472.898438 45.199219 477.460938 50.792969 477.460938 L 193.015625 477.460938 L 193.015625 294.601563 L 314.921875 294.601563 L 314.921875 477.460938 L 457.144531 477.460938 C 462.738281 477.460938 467.300781 472.898438 467.300781 467.300781 L 467.300781 200.238281 L 481.308594 211.191406 C 483.253906 212.617188 485.398438 213.332031 487.617188 213.332031 C 490.675781 213.332031 493.609375 212.023438 495.636719 209.484375 C 499.085938 205 498.292969 198.609375 493.929688 195.160156 L 260.277344 12.777344 C 258.371094 11.390625 256.191406 10.675781 253.96875 10.675781 Z M 355.554688 50.792969 L 355.554688 61.46875 L 416.507813 109.007813 L 416.507813 50.792969 Z "/>
</g>
</svg>
