<?xml version="1.0" encoding="UTF-8"?>
<svg xmlns="http://www.w3.org/2000/svg" xmlns:xlink="http://www.w3.org/1999/xlink" width="64pt" height="64pt" viewBox="0 0 64 64" version="1.1">
<g id="surface1">
<path style=" stroke:none;fill-rule:nonzero;fill:#0F1096;fill-opacity:1;" d="M 31.746094 2.539063 C 15.628906 2.539063 2.539063 15.628906 2.539063 31.746094 C 2.539063 47.863281 15.628906 60.953125 31.746094 60.953125 C 47.863281 60.953125 60.953125 47.863281 60.953125 31.746094 C 60.953125 15.628906 47.863281 2.539063 31.746094 2.539063 Z M 31.746094 5.078125 C 46.488281 5.078125 58.414063 17.003906 58.414063 31.746094 C 58.414063 46.488281 46.488281 58.414063 31.746094 58.414063 C 17.003906 58.414063 5.078125 46.488281 5.078125 31.746094 C 5.078125 17.003906 17.003906 5.078125 31.746094 5.078125 Z M 31.746094 8.890625 C 19.136719 8.890625 8.890625 19.136719 8.890625 31.746094 C 8.890625 44.355469 19.136719 54.601563 31.746094 54.601563 C 44.355469 54.601563 54.601563 44.355469 54.601563 31.746094 C 54.601563 19.136719 44.355469 8.890625 31.746094 8.890625 Z M 31.746094 11.429688 C 42.980469 11.429688 52.0625 20.511719 52.0625 31.746094 C 52.0625 42.980469 42.980469 52.0625 31.746094 52.0625 C 20.511719 52.0625 11.429688 42.980469 11.429688 31.746094 C 11.429688 20.511719 20.511719 11.429688 31.746094 11.429688 Z M 40.636719 22.855469 L 19.046875 30.8125 L 29.269531 34.222656 L 32.679688 44.445313 Z "/>
</g>
</svg>
