<?xml version="1.0" encoding="UTF-8"?>
<svg xmlns="http://www.w3.org/2000/svg" xmlns:xlink="http://www.w3.org/1999/xlink" width="64pt" height="64pt" viewBox="0 0 64 64" version="1.1">
<g id="surface1">
<path style=" stroke:none;fill-rule:nonzero;fill:#00153D;fill-opacity:1;" d="M 31.746094 2.539063 C 15.613281 2.539063 2.539063 15.613281 2.539063 31.746094 C 2.539063 47.878906 15.613281 60.953125 31.746094 60.953125 C 47.878906 60.953125 60.953125 47.878906 60.953125 31.746094 C 60.953125 15.613281 47.878906 2.539063 31.746094 2.539063 Z M 31.746094 8.890625 C 44.351563 8.890625 54.601563 19.140625 54.601563 31.746094 C 54.601563 44.351563 44.351563 54.601563 31.746094 54.601563 C 19.140625 54.601563 8.890625 44.351563 8.890625 31.746094 C 8.890625 19.140625 19.140625 8.890625 31.746094 8.890625 Z M 31.746094 11.429688 C 20.546875 11.429688 11.429688 20.546875 11.429688 31.746094 C 11.429688 42.945313 20.546875 52.0625 31.746094 52.0625 C 42.945313 52.0625 52.0625 42.945313 52.0625 31.746094 C 52.0625 20.546875 42.945313 11.429688 31.746094 11.429688 Z M 40.636719 22.855469 L 32.679688 44.445313 L 29.269531 34.222656 L 19.046875 30.8125 Z "/>
</g>
</svg>
