<?xml version="1.0" encoding="UTF-8"?>
<svg xmlns="http://www.w3.org/2000/svg" xmlns:xlink="http://www.w3.org/1999/xlink" width="256pt" height="256pt" viewBox="0 0 256 256" version="1.1">
<g id="surface1">
<path style=" stroke:none;fill-rule:nonzero;fill:#00153D;fill-opacity:1;" d="M 30.476563 0 L 30.476563 243.808594 L 172.855469 243.808594 C 181.328125 250.160156 191.804688 253.96875 203.175781 253.96875 C 231.171875 253.96875 253.96875 231.171875 253.96875 203.175781 C 253.96875 182.421875 241.367188 164.542969 223.492188 156.667969 L 223.492188 74.128906 L 149.363281 0 Z M 147.300781 12.222656 L 211.269531 76.191406 L 147.300781 76.191406 Z M 203.175781 162.539063 C 225.675781 162.539063 243.808594 180.675781 243.808594 203.175781 C 243.808594 225.675781 225.675781 243.808594 203.175781 243.808594 C 180.675781 243.808594 162.539063 225.675781 162.539063 203.175781 C 162.539063 180.675781 180.675781 162.539063 203.175781 162.539063 Z M 198.09375 177.777344 L 198.09375 198.09375 L 177.777344 198.09375 L 177.777344 208.253906 L 198.09375 208.253906 L 198.09375 228.570313 L 208.253906 228.570313 L 208.253906 208.253906 L 228.570313 208.253906 L 228.570313 198.09375 L 208.253906 198.09375 L 208.253906 177.777344 Z "/>
</g>
</svg>
