<?xml version="1.0" encoding="UTF-8"?>
<svg xmlns="http://www.w3.org/2000/svg" xmlns:xlink="http://www.w3.org/1999/xlink" width="64pt" height="64pt" viewBox="0 0 64 64" version="1.1">
<g id="surface1">
<path style=" stroke:none;fill-rule:nonzero;fill:#0F1096;fill-opacity:1;" d="M 8.890625 8.890625 C 6.789063 8.890625 5.078125 10.601563 5.078125 12.699219 L 5.078125 50.792969 C 5.078125 52.890625 6.789063 54.601563 8.890625 54.601563 L 36.050781 54.601563 C 35.84375 53.78125 35.695313 52.9375 35.621094 52.0625 L 8.890625 52.0625 C 8.191406 52.0625 7.617188 51.492188 7.617188 50.792969 L 7.617188 19.046875 L 55.871094 19.046875 L 55.871094 36.445313 C 56.761719 36.757813 57.609375 37.144531 58.414063 37.609375 L 58.414063 12.699219 C 58.414063 10.601563 56.703125 8.890625 54.601563 8.890625 Z M 8.890625 11.429688 L 54.601563 11.429688 C 55.300781 11.429688 55.871094 12 55.871094 12.699219 L 55.871094 16.507813 L 7.617188 16.507813 L 7.617188 12.699219 C 7.617188 12 8.191406 11.429688 8.890625 11.429688 Z M 10.160156 12.699219 C 9.460938 12.699219 8.890625 13.269531 8.890625 13.96875 C 8.890625 14.667969 9.460938 15.238281 10.160156 15.238281 C 10.859375 15.238281 11.429688 14.667969 11.429688 13.96875 C 11.429688 13.269531 10.859375 12.699219 10.160156 12.699219 Z M 13.96875 12.699219 C 13.269531 12.699219 12.699219 13.269531 12.699219 13.96875 C 12.699219 14.667969 13.269531 15.238281 13.96875 15.238281 C 14.667969 15.238281 15.238281 14.667969 15.238281 13.96875 C 15.238281 13.269531 14.667969 12.699219 13.96875 12.699219 Z M 17.777344 12.699219 C 17.078125 12.699219 16.507813 13.269531 16.507813 13.96875 C 16.507813 14.667969 17.078125 15.238281 17.777344 15.238281 C 18.476563 15.238281 19.046875 14.667969 19.046875 13.96875 C 19.046875 13.269531 18.476563 12.699219 17.777344 12.699219 Z M 50.792969 38.09375 C 43.808594 38.09375 38.09375 43.808594 38.09375 50.792969 C 38.09375 57.777344 43.808594 63.492188 50.792969 63.492188 C 57.777344 63.492188 63.492188 57.777344 63.492188 50.792969 C 63.492188 43.808594 57.777344 38.09375 50.792969 38.09375 Z M 50.792969 40.636719 C 56.378906 40.636719 60.953125 45.207031 60.953125 50.792969 C 60.953125 56.378906 56.378906 60.953125 50.792969 60.953125 C 45.207031 60.953125 40.636719 56.378906 40.636719 50.792969 C 40.636719 45.207031 45.207031 40.636719 50.792969 40.636719 Z M 45.714844 49.523438 C 45.015625 49.523438 44.445313 50.09375 44.445313 50.792969 C 44.445313 51.492188 45.015625 52.0625 45.714844 52.0625 C 46.414063 52.0625 46.984375 51.492188 46.984375 50.792969 C 46.984375 50.09375 46.414063 49.523438 45.714844 49.523438 Z M 50.792969 49.523438 C 50.09375 49.523438 49.523438 50.09375 49.523438 50.792969 C 49.523438 51.492188 50.09375 52.0625 50.792969 52.0625 C 51.492188 52.0625 52.0625 51.492188 52.0625 50.792969 C 52.0625 50.09375 51.492188 49.523438 50.792969 49.523438 Z M 55.871094 49.523438 C 55.171875 49.523438 54.601563 50.09375 54.601563 50.792969 C 54.601563 51.492188 55.171875 52.0625 55.871094 52.0625 C 56.574219 52.0625 57.144531 51.492188 57.144531 50.792969 C 57.144531 50.09375 56.574219 49.523438 55.871094 49.523438 Z "/>
</g>
</svg>
