<?xml version="1.0" encoding="UTF-8"?>
<svg xmlns="http://www.w3.org/2000/svg" xmlns:xlink="http://www.w3.org/1999/xlink" width="64pt" height="64pt" viewBox="0 0 64 64" version="1.1">
<g id="surface1">
<path style=" stroke:none;fill-rule:nonzero;fill:#0F1096;fill-opacity:1;" d="M 31.746094 1.269531 C 28.953125 1.269531 26.667969 3.554688 26.667969 6.347656 L 26.667969 7.617188 L 15.238281 7.617188 C 13.148438 7.617188 11.429688 9.339844 11.429688 11.429688 L 11.429688 58.414063 C 11.429688 60.5 13.148438 62.222656 15.238281 62.222656 L 48.253906 62.222656 C 50.34375 62.222656 52.0625 60.5 52.0625 58.414063 L 52.0625 11.429688 C 52.0625 9.339844 50.34375 7.617188 48.253906 7.617188 L 36.824219 7.617188 L 36.824219 6.347656 C 36.824219 3.554688 34.539063 1.269531 31.746094 1.269531 Z M 31.746094 3.808594 C 33.164063 3.808594 34.285156 4.929688 34.285156 6.347656 L 34.285156 8.675781 C 34.261719 8.816406 34.261719 8.953125 34.285156 9.085938 L 34.285156 11.429688 L 29.207031 11.429688 L 29.207031 9.101563 C 29.230469 8.964844 29.230469 8.824219 29.207031 8.691406 L 29.207031 6.347656 C 29.207031 4.929688 30.328125 3.808594 31.746094 3.808594 Z M 31.746094 5.078125 C 31.046875 5.078125 30.476563 5.648438 30.476563 6.347656 C 30.476563 7.046875 31.046875 7.617188 31.746094 7.617188 C 32.445313 7.617188 33.015625 7.046875 33.015625 6.347656 C 33.015625 5.648438 32.445313 5.078125 31.746094 5.078125 Z M 15.238281 10.160156 L 26.667969 10.160156 L 26.667969 12.699219 C 26.667969 13.398438 27.238281 13.96875 27.9375 13.96875 L 35.554688 13.96875 C 36.253906 13.96875 36.824219 13.398438 36.824219 12.699219 L 36.824219 10.160156 L 48.253906 10.160156 C 48.972656 10.160156 49.523438 10.710938 49.523438 11.429688 L 49.523438 58.414063 C 49.523438 59.132813 48.972656 59.683594 48.253906 59.683594 L 15.238281 59.683594 C 14.519531 59.683594 13.96875 59.132813 13.96875 58.414063 L 13.96875 11.429688 C 13.96875 10.710938 14.519531 10.160156 15.238281 10.160156 Z M 42.277344 27.039063 L 27.9375 41.378906 L 21.214844 34.65625 L 19.417969 36.453125 L 27.9375 44.96875 L 44.074219 28.835938 Z "/>
</g>
</svg>
