<?xml version="1.0" encoding="UTF-8"?>
<svg xmlns="http://www.w3.org/2000/svg" xmlns:xlink="http://www.w3.org/1999/xlink" width="64pt" height="64pt" viewBox="0 0 64 64" version="1.1">
<g id="surface1">
<path style=" stroke:none;fill-rule:nonzero;fill:#0F1096;fill-opacity:1;" d="M 31.746094 6.347656 C 23.441406 6.347656 16.066406 10.347656 11.429688 16.523438 L 11.429688 8.890625 C 11.433594 8.546875 11.300781 8.214844 11.054688 7.972656 C 10.8125 7.726563 10.480469 7.59375 10.140625 7.597656 C 9.441406 7.613281 8.878906 8.191406 8.890625 8.890625 L 8.890625 21.585938 L 21.585938 21.585938 C 22.042969 21.59375 22.46875 21.355469 22.703125 20.957031 C 22.929688 20.558594 22.929688 20.074219 22.703125 19.675781 C 22.46875 19.28125 22.042969 19.042969 21.585938 19.046875 L 12.753906 19.046875 C 16.855469 12.925781 23.816406 8.890625 31.746094 8.890625 C 44.386719 8.890625 54.601563 19.105469 54.601563 31.746094 C 54.597656 32.203125 54.835938 32.628906 55.234375 32.863281 C 55.628906 33.089844 56.117188 33.089844 56.511719 32.863281 C 56.910156 32.628906 57.148438 32.203125 57.144531 31.746094 C 57.144531 17.734375 45.757813 6.347656 31.746094 6.347656 Z M 7.597656 30.457031 C 6.898438 30.472656 6.339844 31.046875 6.347656 31.746094 C 6.347656 45.757813 17.734375 57.144531 31.746094 57.144531 C 40.050781 57.144531 47.429688 53.140625 52.0625 46.964844 L 52.0625 54.601563 C 52.058594 55.058594 52.296875 55.484375 52.695313 55.71875 C 53.089844 55.949219 53.578125 55.949219 53.972656 55.71875 C 54.371094 55.484375 54.609375 55.058594 54.601563 54.601563 L 54.601563 41.90625 L 53.253906 41.90625 C 53.09375 41.875 52.9375 41.875 52.777344 41.90625 L 41.90625 41.90625 C 41.449219 41.898438 41.023438 42.144531 40.789063 42.535156 C 40.558594 42.929688 40.558594 43.421875 40.789063 43.820313 C 41.023438 44.210938 41.449219 44.453125 41.90625 44.445313 L 50.738281 44.445313 C 46.640625 50.566406 39.675781 54.601563 31.746094 54.601563 C 19.105469 54.601563 8.890625 44.386719 8.890625 31.746094 C 8.894531 31.402344 8.761719 31.070313 8.515625 30.828125 C 8.273438 30.585938 7.941406 30.453125 7.597656 30.457031 Z "/>
</g>
</svg>
