<?xml version="1.0" encoding="UTF-8"?>
<svg xmlns="http://www.w3.org/2000/svg" xmlns:xlink="http://www.w3.org/1999/xlink" width="64pt" height="64pt" viewBox="0 0 64 64" version="1.1">
<g id="surface1">
<path style=" stroke:none;fill-rule:nonzero;fill:#00153D;fill-opacity:1;" d="M 31.746094 0.078125 C 21.992188 0.078125 14.046875 8.027344 14.046875 17.777344 C 14.046875 33.328125 30.109375 54.429688 30.792969 55.316406 C 31.015625 55.609375 31.378906 55.792969 31.746094 55.792969 C 32.113281 55.792969 32.476563 55.609375 32.699219 55.316406 C 33.382813 54.414063 49.445313 32.972656 49.445313 17.777344 C 49.445313 8.027344 41.496094 0.078125 31.746094 0.078125 Z M 31.746094 11.429688 C 35.953125 11.429688 39.363281 14.839844 39.363281 19.046875 C 39.363281 23.253906 35.953125 26.667969 31.746094 26.667969 C 27.539063 26.667969 24.128906 23.253906 24.128906 19.046875 C 24.128906 14.839844 27.539063 11.429688 31.746094 11.429688 Z M 19.960938 43.253906 C 9.933594 44.644531 1.714844 47.828125 1.308594 52.617188 C 1.285156 52.722656 1.269531 52.828125 1.269531 52.9375 C 1.269531 59.78125 16.96875 63.492188 31.746094 63.492188 C 46.25 63.492188 61.660156 59.933594 62.222656 53.332031 C 62.246094 53.234375 62.261719 53.128906 62.261719 53.015625 C 62.261719 48 53.808594 44.675781 43.492188 43.253906 C 39.554688 50.3125 35.566406 55.703125 34.722656 56.824219 C 34.027344 57.746094 32.917969 58.328125 31.746094 58.332031 C 30.59375 58.332031 29.503906 57.773438 28.808594 56.863281 C 28.457031 56.410156 24.167969 50.792969 19.960938 43.253906 Z "/>
</g>
</svg>
