<?xml version="1.0" encoding="UTF-8"?>
<svg xmlns="http://www.w3.org/2000/svg" xmlns:xlink="http://www.w3.org/1999/xlink" width="64pt" height="64pt" viewBox="0 0 64 64" version="1.1">
<g id="surface1">
<path style=" stroke:none;fill-rule:nonzero;fill:#0F1096;fill-opacity:1;" d="M 31.746094 2.539063 C 20.539063 2.539063 11.429688 11.652344 11.429688 22.855469 C 11.429688 30.914063 16.335938 40.207031 21.152344 47.617188 C 25.96875 55.03125 30.792969 60.515625 30.792969 60.515625 C 31.035156 60.789063 31.382813 60.949219 31.746094 60.949219 C 32.109375 60.949219 32.457031 60.789063 32.699219 60.515625 C 32.699219 60.515625 37.523438 55.019531 42.339844 47.617188 C 47.15625 40.21875 52.0625 30.953125 52.0625 22.855469 C 52.0625 11.652344 42.953125 2.539063 31.746094 2.539063 Z M 31.746094 5.078125 C 41.578125 5.078125 49.523438 13.027344 49.523438 22.855469 C 49.523438 29.890625 44.90625 39.039063 40.199219 46.269531 C 36.25 52.332031 32.917969 56.324219 31.746094 57.699219 C 30.582031 56.324219 27.246094 52.3125 23.292969 46.230469 C 18.585938 38.988281 13.96875 29.839844 13.96875 22.855469 C 13.96875 13.027344 21.914063 5.078125 31.746094 5.078125 Z M 31.746094 15.039063 L 31.109375 15.4375 L 21.585938 21.152344 L 22.855469 23.292969 L 22.855469 33.015625 L 40.636719 33.015625 L 40.636719 23.292969 L 41.90625 21.152344 L 32.382813 15.4375 Z M 31.746094 17.976563 L 38.09375 21.785156 L 38.09375 30.476563 L 34.285156 30.476563 L 34.285156 24.128906 L 29.207031 24.128906 L 29.207031 30.476563 L 25.398438 30.476563 L 25.398438 21.785156 Z "/>
</g>
</svg>
